<svg xmlns="http://www.w3.org/2000/svg" xmlns:xlink="http://www.w3.org/1999/xlink" x="0" y="0" width="701.6000366210938" height="301.6000061035156" style="
        width:701.6000366210938px;
        height:301.6000061035156px;
        background: #FFF;
        fill: none;
">
        <svg xmlns="http://www.w3.org/2000/svg"/>
        
        <svg xmlns="http://www.w3.org/2000/svg" class="role-diagram-draw-area" style="overflow: visible;"><g class="shapes-region" style="stroke: black; fill: none;"><g class="composite-shape"><path class="real" d=" M255.05,164.34 L485.6,164.34 L485.6,283.73 L255.05,283.73 Z" style="stroke-width: 1; stroke: rgb(0, 0, 0); stroke-opacity: 1; fill: rgb(245, 166, 35); fill-opacity: 0.68;"/></g><g class="composite-shape"><path class="real" d=" M90.68,9.07 L697.13,9.07 L697.13,150.97 L90.68,150.97 Z" style="stroke-width: 1; stroke: rgb(0, 0, 0); stroke-opacity: 1; fill: rgb(137, 216, 49); fill-opacity: 0.54;"/></g><g class="arrow-line"><path class="connection real" stroke-dasharray="" d="  M44.21,58.81 L192.7,58.81" style="stroke: rgb(0, 0, 0); stroke-width: 1; fill: none; fill-opacity: 1;"/></g><g class="composite-shape"><path class="real" d=" M268.48,58.81 C268.48,57.3 269.71,56.07 271.22,56.07 C272.73,56.07 273.96,57.3 273.96,58.81 C273.96,60.32 272.73,61.55 271.22,61.55 C269.71,61.55 268.48,60.32 268.48,58.81 Z" style="stroke-width: 1; stroke: rgb(0, 0, 0); fill: rgb(0, 0, 0); fill-opacity: 1;"/></g><g class="grouped-shape"><g class="composite-shape"><path class="real" d=" M25.3,51.94 C25.3,49.96 26.9,48.36 28.88,48.36 L39.62,48.36 C41.59,48.36 43.2,49.96 43.2,51.94 L43.2,64.07 C43.2,66.05 41.59,67.65 39.62,67.65 L28.88,67.65 C26.9,67.65 25.3,66.05 25.3,64.07 Z" style="stroke-width: 1; stroke: rgb(0, 0, 0); fill: rgb(255, 255, 255); fill-opacity: 1;"/></g><g class="composite-shape"><path class="real" d=" M28.6,58 C28.6,54.6 31.13,51.84 34.25,51.84 C37.37,51.84 39.89,54.6 39.89,58 C39.89,61.41 37.37,64.17 34.25,64.17 C31.13,64.17 28.6,61.41 28.6,58 Z" style="stroke-width: 1; stroke: rgb(0, 0, 0); fill: rgb(255, 255, 255); fill-opacity: 1;"/></g></g><g class="composite-shape"><path class="real" d=" M18.7,117.85 L42.84,117.85 L42.84,139.08 C27.75,139.08 30.77,146.73 18.7,141.78 Z" style="stroke-width: 1; stroke: rgb(0, 0, 0); fill: rgb(255, 255, 255); fill-opacity: 1;"/></g><g class="arrow-line"><path class="connection real" stroke-dasharray="" d="  M44.32,93 L193.84,93" style="stroke: rgb(0, 0, 0); stroke-width: 1; fill: none; fill-opacity: 1;"/></g><g class="composite-shape"><path class="real" d=" M98.62,55.3 C98.62,49.94 102.97,45.59 108.34,45.59 L152.28,45.59 C157.65,45.59 162,49.94 162,55.3 L162,99.27 C162,104.64 157.65,108.99 152.28,108.99 L108.34,108.99 C102.97,108.99 98.62,104.64 98.62,99.27 Z" style="stroke-width: 1; stroke: rgb(0, 0, 0); fill: rgb(255, 255, 255); fill-opacity: 1;"/></g><g class="grouped-shape"><g class="composite-shape"><path class="real" d=" M26.42,80.88 C26.42,78.9 28.02,77.3 30,77.3 L40.74,77.3 C42.72,77.3 44.32,78.9 44.32,80.88 L44.32,93 C44.32,94.98 42.72,96.58 40.74,96.58 L30,96.58 C28.02,96.58 26.42,94.98 26.42,93 Z" style="stroke-width: 1; stroke: rgb(0, 0, 0); fill: rgb(255, 255, 255); fill-opacity: 1;"/></g><g class="composite-shape"><path class="real" d=" M29.84,84.73 C29.84,82.76 31.45,81.15 33.42,81.15 L44.16,81.15 C46.14,81.15 47.74,82.76 47.74,84.73 L47.74,96.86 C47.74,98.84 46.14,100.44 44.16,100.44 L33.42,100.44 C31.45,100.44 29.84,98.84 29.84,96.86 Z" style="stroke-width: 1; stroke: rgb(0, 0, 0); fill: rgb(255, 255, 255); fill-opacity: 1;"/></g><g class="composite-shape"><path class="real" d=" M33.27,88.59 C33.27,86.61 34.87,85.01 36.85,85.01 L47.59,85.01 C49.56,85.01 51.17,86.61 51.17,88.59 L51.17,100.72 C51.17,102.7 49.56,104.3 47.59,104.3 L36.85,104.3 C34.87,104.3 33.27,102.7 33.27,100.72 Z" style="stroke-width: 1; stroke: rgb(0, 0, 0); fill: rgb(255, 255, 255); fill-opacity: 1;"/></g><g class="composite-shape"><path class="real" d=" M36.57,94.66 C36.57,91.25 39.1,88.49 42.22,88.49 C45.34,88.49 47.86,91.25 47.86,94.66 C47.86,98.06 45.34,100.82 42.22,100.82 C39.1,100.82 36.57,98.06 36.57,94.66 Z" style="stroke-width: 1; stroke: rgb(0, 0, 0); fill: rgb(255, 255, 255); fill-opacity: 1;"/></g></g><g class="arrow-line"><path class="connection real" stroke-dasharray="" d="  M43.57,130.79 L193.84,130.79" style="stroke: rgb(0, 0, 0); stroke-width: 1; fill: none; fill-opacity: 1;"/></g><g class="composite-shape"><path class="real" d=" M268.48,93 C268.48,91.49 269.71,90.27 271.22,90.27 C272.73,90.27 273.96,91.49 273.96,93 C273.96,94.52 272.73,95.74 271.22,95.74 C269.71,95.74 268.48,94.52 268.48,93 Z" style="stroke-width: 1; stroke: rgb(0, 0, 0); fill: rgb(0, 0, 0); fill-opacity: 1;"/></g><g class="composite-shape"><path class="real" d=" M268.48,130.57 C268.48,129.05 269.71,127.83 271.22,127.83 C272.73,127.83 273.96,129.05 273.96,130.57 C273.96,132.08 272.73,133.31 271.22,133.31 C269.71,133.31 268.48,132.08 268.48,130.57 Z" style="stroke-width: 1; stroke: rgb(0, 0, 0); fill: rgb(0, 0, 0); fill-opacity: 1;"/></g><g class="composite-shape"><path class="real" d=" M191.1,93 L271.22,93 L271.22,164.76" style="stroke-width: 1; stroke: rgb(0, 0, 0); fill: none; fill-opacity: 1;"/></g><g class="composite-shape"><path class="real" d=" M189.96,58.81 L271.22,58.81 L271.22,130.57" style="stroke-width: 1; stroke: rgb(0, 0, 0); fill: none; fill-opacity: 1;"/></g><g class="composite-shape"><path class="real" d=" M189.96,130.57 L271.22,130.57 L271.22,164.76" style="stroke-width: 1; stroke: rgb(0, 0, 0); fill: none; fill-opacity: 1;"/></g><g class="composite-shape"><path class="real" d=" M277.32,86.32 C277.32,84.35 278.93,82.74 280.9,82.74 L291.64,82.74 C293.62,82.74 295.22,84.35 295.22,86.32 L295.22,98.45 C295.22,100.43 293.62,102.03 291.64,102.03 L280.9,102.03 C278.93,102.03 277.32,100.43 277.32,98.45 Z" style="stroke-width: 1; stroke: rgb(0, 0, 0); fill: rgb(255, 255, 255); fill-opacity: 1;"/></g><g class="composite-shape"><path class="real" d=" M280.63,92.39 C280.63,88.99 283.15,86.23 286.27,86.23 C289.39,86.23 291.92,88.99 291.92,92.39 C291.92,95.79 289.39,98.55 286.27,98.55 C283.15,98.55 280.63,95.79 280.63,92.39 Z" style="stroke-width: 1; stroke: rgb(0, 0, 0); fill: rgb(0, 0, 0); fill-opacity: 1;"/></g><g class="composite-shape"><path class="real" d=" M180.06,49.86 C180.06,47.68 181.83,45.91 184.02,45.91 L225.38,45.91 C227.56,45.91 229.33,47.68 229.33,49.86 L229.33,67.73 C229.33,69.92 227.56,71.69 225.38,71.69 L184.02,71.69 C181.83,71.69 180.06,69.92 180.06,67.73 Z" style="stroke-width: 1; stroke: rgb(0, 0, 0); fill: rgb(255, 255, 255); fill-opacity: 1;"/></g><g class="composite-shape"><path class="real" d=" M180.52,83.87 C180.52,81.68 182.29,79.91 184.47,79.91 L225.83,79.91 C228.02,79.91 229.79,81.68 229.79,83.87 L229.79,101.74 C229.79,103.92 228.02,105.69 225.83,105.69 L184.47,105.69 C182.29,105.69 180.52,103.92 180.52,101.74 Z" style="stroke-width: 1; stroke: rgb(0, 0, 0); fill: rgb(255, 255, 255); fill-opacity: 1;"/></g><g class="composite-shape"><path class="real" d=" M146.23,122.59 C146.23,120.48 147.94,118.77 150.05,118.77 L191.67,118.77 C193.79,118.77 195.5,120.48 195.5,122.59 L195.5,139.88 C195.5,142 193.79,143.71 191.67,143.71 L150.05,143.71 C147.94,143.71 146.23,142 146.23,139.88 Z" style="stroke-width: 1; stroke: rgb(0, 0, 0); fill: rgb(255, 255, 255); fill-opacity: 1;"/></g><g class="composite-shape"><path class="real" d=" M266.89,197.75 L266.89,253.97 L281.94,266.94 L347.16,266.94 L347.16,197.75 Z" style="stroke-width: 1; stroke: rgb(0, 0, 0); fill: rgb(255, 255, 255); fill-opacity: 1;"/></g><g class="composite-shape"><g class="real" style="stroke-width: 1; stroke: rgb(0, 0, 0); fill: rgb(255, 255, 255); fill-opacity: 1;"><path d=" M364.32,199.17 L422.36,199.17 L422.36,226.49 L364.32,226.49 L364.32,199.17 Z"/><path d=" M348,212.83 L364.32,212.83" style="fill: none;"/><path d=" M422.36,212.83 L438.68,212.83" style="fill: none;"/></g></g><g class="composite-shape"><g class="real" style="stroke-width: 1; stroke: rgb(0, 0, 0); fill: rgb(255, 255, 255); fill-opacity: 1;"><path d=" M364.32,237.71 L422.36,237.71 L422.36,265.03 L364.32,265.03 L364.32,237.71 Z"/><path d=" M348,251.37 L364.32,251.37" style="fill: none;"/><path d=" M422.36,251.37 L438.68,251.37" style="fill: none;"/></g></g><g class="composite-shape"><path class="real" d=" M596.62,65.31 C596.62,59.94 600.97,55.59 606.34,55.59 L654.88,55.59 C660.25,55.59 664.6,59.94 664.6,65.31 L664.6,109.27 C664.6,114.64 660.25,118.99 654.88,118.99 L606.34,118.99 C600.97,118.99 596.62,114.64 596.62,109.27 Z" style="stroke-width: 1; stroke: rgb(0, 0, 0); fill: rgb(255, 255, 255); fill-opacity: 1;"/></g><g class="arrow-line"><path class="connection real" stroke-dasharray="" d="  M422.36,212.83 L514,212.83" style="stroke: rgb(0, 0, 0); stroke-width: 1; fill: none; fill-opacity: 1;"/></g><g class="arrow-line"><path class="connection real" stroke-dasharray="" d="  M422.36,251.37 L514,251.37" style="stroke: rgb(0, 0, 0); stroke-width: 1; fill: none; fill-opacity: 1;"/></g><g class="composite-shape"><path class="real" d=" M513.8,163.7 L650.2,163.7 L650.2,283.73 L513.8,283.73 Z" style="stroke-width: 1; stroke: rgb(0, 0, 0); stroke-opacity: 1; fill: rgb(228, 7, 7); fill-opacity: 0.49;"/></g><g class="composite-shape"><path class="real" d=" M556.32,85.2 L454.08,85.2 L454.08,213.04" style="stroke-width: 1; stroke: rgb(0, 0, 0); fill: none; fill-opacity: 1;"/></g><g class="arrow-line"><path class="connection real" stroke-dasharray="" d="  M454.08,251.55 L454.08,213.04" style="stroke: rgb(0, 0, 0); stroke-width: 1; fill: none; fill-opacity: 1;"/></g><g class="composite-shape"><path class="real" d=" M451.12,213.04 C451.12,211.4 452.44,210.08 454.08,210.08 C455.72,210.08 457.04,211.4 457.04,213.04 C457.04,214.68 455.72,216 454.08,216 C452.44,216 451.12,214.68 451.12,213.04 Z" style="stroke-width: 1; stroke: rgb(0, 0, 0); fill: rgb(0, 0, 0); fill-opacity: 1;"/></g><g class="composite-shape"><path class="real" d=" M451.12,251.55 C451.12,249.91 452.44,248.59 454.08,248.59 C455.72,248.59 457.04,249.91 457.04,251.55 C457.04,253.19 455.72,254.51 454.08,254.51 C452.44,254.51 451.12,253.19 451.12,251.55 Z" style="stroke-width: 1; stroke: rgb(0, 0, 0); fill: rgb(0, 0, 0); fill-opacity: 1;"/></g><g class="arrow-line"><path class="connection real" stroke-dasharray="" d="  M556.32,85.2 L597,85.2" style="stroke: rgb(0, 0, 0); stroke-width: 1; fill: none; fill-opacity: 1;"/></g><g class="composite-shape"><path class="real" d=" M437.95,71.3 L437.95,93.89 L444,99.1 L470.21,99.1 L470.21,71.3 Z" style="stroke-width: 1; stroke: rgb(0, 0, 0); fill: rgb(255, 255, 255); fill-opacity: 1;"/></g><g class="grouped-shape"><g class="composite-shape"><path class="real" d=" M555,170.74 L571.2,170.74 L571.2,180 L555,180 Z" style="stroke-width: 1; stroke: rgb(0, 0, 0); fill: rgb(255, 255, 255); fill-opacity: 1;"/></g><g class="arrow-line"><path class="connection real" stroke-dasharray="" d="  M555,170.74 L563.1,175.37" style="stroke: rgb(0, 0, 0); stroke-width: 1; fill: rgb(255, 255, 255); fill-opacity: 1;"/></g><g class="arrow-line"><path class="connection real" stroke-dasharray="" d="  M571.2,170.74 L563.1,175.37" style="stroke: rgb(0, 0, 0); stroke-width: 1; fill: rgb(255, 255, 255); fill-opacity: 1;"/></g><g class="arrow-line"><path class="connection real" stroke-dasharray="" d="  M555,180 L560.6,174.28" style="stroke: rgb(0, 0, 0); stroke-width: 1; fill: rgb(255, 255, 255); fill-opacity: 1;"/></g><g class="arrow-line"><path class="connection real" stroke-dasharray="" d="  M571.2,180 L565.69,174.05" style="stroke: rgb(0, 0, 0); stroke-width: 1; fill: rgb(255, 255, 255); fill-opacity: 1;"/></g></g><g class="composite-shape"><path class="real" d=" M552,203 L622,203 L622,250.27 C578.25,250.27 587,267.32 552,256.29 Z" style="stroke-width: 1; stroke: rgb(0, 0, 0); fill: rgb(255, 255, 255); fill-opacity: 1;"/></g><g class="arrow-line"><path class="connection real" stroke-dasharray="" d="  M564.2,213.04 L612.2,213.04" style="stroke: rgb(0, 0, 0); stroke-width: 1; fill: none; fill-opacity: 1;"/></g><g class="arrow-line"><path class="connection real" stroke-dasharray="" d="  M565.2,225.04 L587,225.04" style="stroke: rgb(0, 0, 0); stroke-width: 1; fill: none; fill-opacity: 1;"/></g><g class="arrow-line"><path class="connection real" stroke-dasharray="" d="  M565.2,238.04 L587,238.04" style="stroke: rgb(0, 0, 0); stroke-width: 1; fill: none; fill-opacity: 1;"/></g><g/></g><g/><g/><g/></svg>
        <svg xmlns="http://www.w3.org/2000/svg" xmlns:xlink="http://www.w3.org/1999/xlink" width="700" height="300" style="width:700px;height:300px;font-family:Asana-Math, Asana;background:#FFF;"><g><g><g><g transform="matrix(1,0,0,1,11.23748779296875,63.10000305175781)"><path transform="matrix(0.015300000000000001,0,0,-0.015300000000000001,0,0)" d="M105 664L161 662C185 661 196 653 196 635C196 621 192 589 187 559L112 125C96 34 94 32 54 28L13 25L9 -3L51 -2C98 0 117 0 141 0L238 -3L264 -3L267 25L218 28C191 30 182 38 182 58C182 67 183 76 186 93L287 648C316 654 336 656 363 656C450 656 496 617 496 543C496 448 418 378 314 378L270 378L267 367C401 172 432 124 507 -3C507 -3 592 0 592 0C593 0 607 -1 626 -3L639 -3L639 24C599 29 588 37 559 79L375 354C430 364 459 376 495 402C553 444 584 499 584 560C584 646 520 693 409 691L108 691Z" stroke="rgb(0,0,0)" stroke-opacity="1" stroke-width="8" fill="rgb(0,0,0)" fill-opacity="1"></path></g></g></g></g><g><g><g><g transform="matrix(1,0,0,1,11.51251220703125,97.1125)"><path transform="matrix(0.015300000000000001,0,0,-0.015300000000000001,0,0)" d="M105 664L160 662C184 661 195 653 195 635L112 125C95 34 94 31 54 28L13 25L9 -3L51 -2C92 -1 123 0 141 0C158 0 187 -1 227 -2L280 -3L283 25L218 28C192 29 182 37 182 58C182 67 183 74 186 93L284 648C320 654 336 656 355 656C457 656 506 612 506 519C506 411 434 323 346 323C324 323 304 328 267 342L269 311C306 293 326 288 355 288C484 288 594 405 594 541C594 642 531 695 412 692L108 692Z" stroke="rgb(0,0,0)" stroke-opacity="1" stroke-width="8" fill="rgb(0,0,0)" fill-opacity="1"></path></g></g></g></g><g><g><g><g transform="matrix(1,0,0,1,28.25,134.83749389648438)"><path transform="matrix(0.017,0,0,-0.017,0,0)" d="M355 664L358 692L244 689C228 689 210 689 167 690L103 692L100 664L147 662C171 661 182 653 182 635C182 630 182 627 181 622L86 -21C71 -124 41 -174 -6 -174C-18 -174 -27 -173 -35 -170L-32 -196C-21 -203 -9 -206 3 -206C38 -206 143 -178 177 54L262 613C268 651 275 658 313 661Z" stroke="rgb(0,0,0)" stroke-opacity="1" stroke-width="8" fill="rgb(0,0,0)" fill-opacity="1"></path></g></g></g></g><g><g><g><g transform="matrix(1,0,0,1,114.05001831054688,81.9875)"><path transform="matrix(0.015300000000000001,0,0,-0.015300000000000001,0,0)" d="M316 -3C388 -3 437 8 489 34C645 114 741 265 741 431C741 529 711 599 650 642C604 675 519 693 424 692L220 689L210 689C201 689 198 689 97 692L94 664L147 662C171 661 182 653 182 635C182 621 178 589 173 559L86 55C81 31 56 29 33 23L28 -3L121 0L176 0C211 0 282 -3 316 -3ZM384 655C566 655 649 579 649 415C649 225 549 41 329 41C285 41 236 46 168 56C168 68 169 75 172 93L268 650C291 650 349 655 384 655ZM1048 204L1019 77C1015 60 1013 42 1013 26C1013 4 1022 -9 1037 -9C1060 -9 1101 17 1183 85L1176 106C1152 86 1123 59 1101 59C1092 59 1086 68 1086 82C1086 87 1086 90 1087 93L1179 472L1169 481L1136 463C1095 478 1078 482 1051 482C1023 482 1003 477 976 464C914 433 881 403 856 354C812 265 781 145 781 67C781 23 796 -11 815 -11C852 -11 932 41 1048 204ZM1096 414C1074 305 1055 253 1021 201C964 117 903 59 871 59C859 59 853 72 853 99C853 163 881 280 916 360C940 415 963 433 1011 433C1034 433 1052 429 1096 414ZM1345 390L1289 107C1288 99 1276 61 1276 31C1276 6 1287 -9 1306 -9C1341 -9 1376 11 1454 74L1485 99L1475 117L1430 86C1401 66 1381 56 1370 56C1361 56 1356 64 1356 76C1356 102 1370 183 1399 328L1412 390L1519 390L1530 440C1492 436 1458 434 1420 434C1436 528 1447 577 1465 631L1454 646C1434 634 1407 622 1376 610L1351 440C1307 419 1281 408 1263 403L1261 390ZM1823 204L1794 77C1790 60 1788 42 1788 26C1788 4 1797 -9 1812 -9C1835 -9 1876 17 1958 85L1951 106C1927 86 1898 59 1876 59C1867 59 1861 68 1861 82C1861 87 1861 90 1862 93L1954 472L1944 481L1911 463C1870 478 1853 482 1826 482C1798 482 1778 477 1751 464C1689 433 1656 403 1631 354C1587 265 1556 145 1556 67C1556 23 1571 -11 1590 -11C1627 -11 1707 41 1823 204ZM1871 414C1849 305 1830 253 1796 201C1739 117 1678 59 1646 59C1634 59 1628 72 1628 99C1628 163 1656 280 1691 360C1715 415 1738 433 1786 433C1809 433 1827 429 1871 414Z" stroke="rgb(0,0,0)" stroke-opacity="1" stroke-width="8" fill="rgb(0,0,0)" fill-opacity="1"></path></g></g></g></g><g><g><g><g transform="matrix(1,0,0,1,185.60000610351562,61.42500305175781)"><path transform="matrix(0.0085,0,0,-0.0085,0,0)" d="M105 664L161 662C185 661 196 653 196 635C196 621 192 589 187 559L112 125C96 34 94 32 54 28L13 25L9 -3L51 -2C98 0 117 0 141 0L238 -3L264 -3L267 25L218 28C191 30 182 38 182 58C182 67 183 76 186 93L287 648C316 654 336 656 363 656C450 656 496 617 496 543C496 448 418 378 314 378L270 378L267 367C401 172 432 124 507 -3C507 -3 592 0 592 0C593 0 607 -1 626 -3L639 -3L639 24C599 29 588 37 559 79L375 354C430 364 459 376 495 402C553 444 584 499 584 560C584 646 520 693 409 691L108 691ZM994 111L970 94C917 56 869 36 833 36C786 36 757 73 757 133C757 158 760 185 765 214C782 218 891 248 916 259C1001 296 1040 342 1040 404C1040 451 1006 482 956 482C888 496 778 423 741 349C711 299 681 180 681 113C681 35 725 -11 797 -11C854 -11 910 17 1002 92ZM779 274C796 343 816 386 845 412C863 428 894 440 918 440C947 440 966 420 966 388C966 344 931 297 879 272C851 258 815 247 770 237ZM1399 437L1383 437L1404 549C1420 635 1448 673 1494 673C1524 673 1551 658 1566 634L1576 638C1581 654 1591 685 1599 705L1604 720C1588 727 1557 733 1534 733C1523 733 1507 730 1499 726C1475 715 1393 654 1370 630C1348 608 1336 578 1325 521L1310 442C1269 422 1249 414 1224 405L1219 383L1300 383L1291 327C1261 132 1224 -54 1202 -123C1184 -182 1154 -213 1118 -213C1095 -213 1084 -206 1066 -184L1052 -188C1048 -211 1034 -259 1029 -268C1038 -273 1053 -276 1064 -276C1105 -276 1159 -245 1198 -198C1269 -114 1289 -18 1373 383L1477 383C1481 402 1488 425 1494 439L1490 446C1461 439 1462 437 1399 437ZM1932 111L1908 94C1855 56 1807 36 1771 36C1724 36 1695 73 1695 133C1695 158 1698 185 1703 214C1720 218 1829 248 1854 259C1939 296 1978 342 1978 404C1978 451 1944 482 1894 482C1826 496 1716 423 1679 349C1649 299 1619 180 1619 113C1619 35 1663 -11 1735 -11C1792 -11 1848 17 1940 92ZM1717 274C1734 343 1754 386 1783 412C1801 428 1832 440 1856 440C1885 440 1904 420 1904 388C1904 344 1869 297 1817 272C1789 258 1753 247 1708 237ZM2360 365C2363 403 2368 435 2376 476C2365 481 2361 482 2356 482C2325 482 2294 458 2258 407C2219 351 2180 291 2164 256L2196 408C2200 425 2202 438 2202 450C2202 470 2194 482 2179 482C2158 482 2120 461 2046 408L2018 388L2025 368L2057 389C2085 407 2096 412 2105 412C2115 412 2122 403 2122 390C2122 332 2079 126 2039 -2L2049 -9C2064 -4 2080 -1 2103 4L2116 6L2142 126C2160 209 2183 262 2227 319C2261 363 2288 384 2310 384C2325 384 2335 379 2346 365ZM2708 111L2684 94C2631 56 2583 36 2547 36C2500 36 2471 73 2471 133C2471 158 2474 185 2479 214C2496 218 2605 248 2630 259C2715 296 2754 342 2754 404C2754 451 2720 482 2670 482C2602 496 2492 423 2455 349C2425 299 2395 180 2395 113C2395 35 2439 -11 2511 -11C2568 -11 2624 17 2716 92ZM2493 274C2510 343 2530 386 2559 412C2577 428 2608 440 2632 440C2661 440 2680 420 2680 388C2680 344 2645 297 2593 272C2565 258 2529 247 2484 237ZM2792 388L2799 368L2831 389C2868 412 2871 414 2878 414C2889 414 2896 404 2896 389C2896 338 2855 145 2814 2L2821 -9C2846 -2 2869 4 2891 8C2910 134 2931 199 2977 268C3031 352 3106 414 3151 414C3162 414 3168 405 3168 390C3168 372 3165 351 3157 319L3105 107C3096 70 3092 47 3092 31C3092 6 3103 -9 3122 -9C3148 -9 3184 12 3282 85L3272 103L3246 86C3217 67 3195 56 3185 56C3178 56 3172 65 3172 76C3172 81 3173 92 3174 96L3240 372C3247 401 3251 429 3251 446C3251 469 3240 482 3220 482C3178 482 3109 444 3050 389C3012 354 2984 320 2932 247L2970 408C2974 426 2976 438 2976 449C2976 470 2968 482 2953 482C2932 482 2893 460 2820 408ZM3665 330L3688 330C3696 395 3703 432 3712 458C3688 473 3653 482 3616 482C3571 483 3498 463 3441 400C3387 352 3348 241 3348 136C3348 40 3390 -11 3470 -11C3524 -11 3572 9 3627 54L3677 95L3669 115L3654 105C3582 57 3544 40 3509 40C3453 40 3424 80 3424 159C3424 267 3459 371 3508 409C3529 425 3553 433 3584 433C3629 433 3665 414 3665 390ZM4057 111L4033 94C3980 56 3932 36 3896 36C3849 36 3820 73 3820 133C3820 158 3823 185 3828 214C3845 218 3954 248 3979 259C4064 296 4103 342 4103 404C4103 451 4069 482 4019 482C3951 496 3841 423 3804 349C3774 299 3744 180 3744 113C3744 35 3788 -11 3860 -11C3917 -11 3973 17 4065 92ZM3842 274C3859 343 3879 386 3908 412C3926 428 3957 440 3981 440C4010 440 4029 420 4029 388C4029 344 3994 297 3942 272C3914 258 3878 247 3833 237Z" stroke="rgb(0,0,0)" stroke-opacity="1" stroke-width="8" fill="rgb(0,0,0)" fill-opacity="1"></path></g></g></g></g><g><g><g><g transform="matrix(1,0,0,1,186.25003051757812,95.42501831054688)"><path transform="matrix(0.0085,0,0,-0.0085,0,0)" d="M105 664L160 662C184 661 195 653 195 635L112 125C95 34 94 31 54 28L13 25L9 -3L51 -2C92 -1 123 0 141 0C158 0 187 -1 227 -2L280 -3L283 25L218 28C192 29 182 37 182 58C182 67 183 74 186 93L284 648C320 654 336 656 355 656C457 656 506 612 506 519C506 411 434 323 346 323C324 323 304 328 267 342L269 311C306 293 326 288 355 288C484 288 594 405 594 541C594 642 531 695 412 692L108 692ZM978 365C981 403 986 435 994 476C983 481 979 482 974 482C943 482 912 458 876 407C837 351 798 291 782 256L814 408C818 425 820 438 820 450C820 470 812 482 797 482C776 482 738 461 664 408L636 388L643 368L675 389C703 407 714 412 723 412C733 412 740 403 740 390C740 332 697 126 657 -2L667 -9C682 -4 698 -1 721 4L734 6L760 126C778 209 801 262 845 319C879 363 906 384 928 384C943 384 953 379 964 365ZM1326 111L1302 94C1249 56 1201 36 1165 36C1118 36 1089 73 1089 133C1089 158 1092 185 1097 214C1114 218 1223 248 1248 259C1333 296 1372 342 1372 404C1372 451 1338 482 1288 482C1220 496 1110 423 1073 349C1043 299 1013 180 1013 113C1013 35 1057 -11 1129 -11C1186 -11 1242 17 1334 92ZM1111 274C1128 343 1148 386 1177 412C1195 428 1226 440 1250 440C1279 440 1298 420 1298 388C1298 344 1263 297 1211 272C1183 258 1147 247 1102 237ZM1869 722L1857 733C1805 707 1769 698 1697 691L1693 670L1741 670C1765 670 1775 663 1775 646C1775 638 1774 629 1773 622L1745 468C1715 477 1688 482 1663 482C1594 482 1500 410 1454 323C1423 265 1403 170 1403 86C1403 21 1418 -11 1447 -11C1474 -11 1511 6 1545 33C1599 77 1632 116 1699 217L1676 126C1665 82 1660 50 1660 24C1660 3 1669 -9 1686 -9C1703 -9 1727 3 1761 28L1842 88L1832 107L1788 76C1774 66 1758 59 1749 59C1741 59 1735 68 1735 82C1735 90 1736 99 1743 128ZM1500 59C1484 59 1475 73 1475 98C1475 224 1521 380 1570 418C1583 428 1602 433 1629 433C1673 433 1702 427 1735 410L1723 351C1686 171 1545 59 1500 59ZM1919 388L1926 368L1958 389C1995 412 1998 414 2005 414C2015 414 2023 404 2023 391C2023 384 2019 361 2015 347L1949 107C1941 76 1936 49 1936 30C1936 6 1947 -9 1966 -9C1992 -9 2028 12 2126 85L2116 103L2090 86C2061 67 2038 56 2029 56C2022 56 2016 66 2016 76C2016 86 2018 95 2023 116L2100 420C2104 437 2106 448 2106 456C2106 473 2097 482 2081 482C2059 482 2022 461 1947 408ZM2113 712C2084 712 2055 679 2055 645C2055 620 2070 604 2094 604C2125 604 2149 633 2149 671C2149 695 2134 712 2113 712ZM2504 330L2527 330C2535 395 2542 432 2551 458C2527 473 2492 482 2455 482C2410 483 2337 463 2280 400C2226 352 2187 241 2187 136C2187 40 2229 -11 2309 -11C2363 -11 2411 9 2466 54L2516 95L2508 115L2493 105C2421 57 2383 40 2348 40C2292 40 2263 80 2263 159C2263 267 2298 371 2347 409C2368 425 2392 433 2423 433C2468 433 2504 414 2504 390ZM2693 390L2637 107C2636 99 2624 61 2624 31C2624 6 2635 -9 2654 -9C2689 -9 2724 11 2802 74L2833 99L2823 117L2778 86C2749 66 2729 56 2718 56C2709 56 2704 64 2704 76C2704 102 2718 183 2747 328L2760 390L2867 390L2878 440C2840 436 2806 434 2768 434C2784 528 2795 577 2813 631L2802 646C2782 634 2755 622 2724 610L2699 440C2655 419 2629 408 2611 403L2609 390ZM2934 388L2941 368L2973 389C3010 412 3013 414 3020 414C3030 414 3038 404 3038 391C3038 384 3034 361 3030 347L2964 107C2956 76 2951 49 2951 30C2951 6 2962 -9 2981 -9C3007 -9 3043 12 3141 85L3131 103L3105 86C3076 67 3053 56 3044 56C3037 56 3031 66 3031 76C3031 86 3033 95 3038 116L3115 420C3119 437 3121 448 3121 456C3121 473 3112 482 3096 482C3074 482 3037 461 2962 408ZM3128 712C3099 712 3070 679 3070 645C3070 620 3085 604 3109 604C3140 604 3164 633 3164 671C3164 695 3149 712 3128 712ZM3194 152C3194 46 3239 -11 3322 -11C3377 -11 3437 15 3482 57C3544 116 3588 230 3588 331C3588 425 3538 482 3455 482C3351 482 3194 382 3194 152ZM3418 444C3479 444 3512 399 3512 315C3512 219 3481 113 3437 60C3419 39 3393 27 3362 27C3304 27 3270 72 3270 151C3270 264 3309 387 3358 427C3371 438 3394 444 3418 444ZM3644 388L3651 368L3683 389C3720 412 3723 414 3730 414C3741 414 3748 404 3748 389C3748 338 3707 145 3666 2L3673 -9C3698 -2 3721 4 3743 8C3762 134 3783 199 3829 268C3883 352 3958 414 4003 414C4014 414 4020 405 4020 390C4020 372 4017 351 4009 319L3957 107C3948 70 3944 47 3944 31C3944 6 3955 -9 3974 -9C4000 -9 4036 12 4134 85L4124 103L4098 86C4069 67 4047 56 4037 56C4030 56 4024 65 4024 76C4024 81 4025 92 4026 96L4092 372C4099 401 4103 429 4103 446C4103 469 4092 482 4072 482C4030 482 3961 444 3902 389C3864 354 3836 320 3784 247L3822 408C3826 426 3828 438 3828 449C3828 470 3820 482 3805 482C3784 482 3745 460 3672 408ZM4206 148C4201 97 4195 62 4184 16C4222 -2 4256 -11 4291 -11C4340 -11 4386 7 4437 47C4488 87 4509 124 4509 174C4509 228 4477 257 4403 271L4360 279C4300 290 4281 307 4281 348C4281 401 4326 442 4383 442C4424 442 4462 424 4478 397L4478 342L4501 342C4505 377 4509 404 4520 455C4481 474 4453 482 4420 482C4368 482 4307 452 4259 404C4233 377 4222 352 4222 316C4222 260 4253 228 4319 215L4382 203C4426 195 4442 177 4442 138C4442 73 4396 29 4325 29C4290 29 4259 40 4231 64L4231 148Z" stroke="rgb(0,0,0)" stroke-opacity="1" stroke-width="8" fill="rgb(0,0,0)" fill-opacity="1"></path></g></g></g></g><g><g><g><g transform="matrix(1,0,0,1,301.0874938964844,97.425)"><path transform="matrix(0.015300000000000001,0,0,-0.015300000000000001,0,0)" d="M795 664L798 692L782 692L691 689C676 689 655 689 611 690L548 692L545 664L593 662C617 661 628 653 628 634C628 629 628 626 627 622L556 177C508 119 478 93 427 68C389 48 352 39 314 39C229 39 175 84 175 154C175 171 177 187 182 215L270 692L239 691C212 690 192 689 181 689C171 689 151 690 123 691L91 692L88 664L140 662C166 661 174 656 174 639C174 630 171 602 167 581L103 206C99 185 97 160 97 144C97 43 164 -19 276 -19C320 -19 361 -9 409 15C468 44 500 69 552 129C544 83 538 57 525 2L530 -3L552 -3L614 0C618 0 640 -1 672 -2L704 -3L709 25L649 29C626 31 617 37 617 50C617 65 618 70 623 106L708 613C714 651 721 657 759 661ZM953 -11C1009 -11 1124 62 1167 125C1208 186 1242 296 1242 371C1242 438 1219 482 1183 482C1141 482 1088 456 1036 409C995 374 975 348 939 289L963 408C966 425 968 440 968 452C968 471 960 482 946 482C925 482 887 461 813 408L785 388L792 368L824 389C852 407 863 412 872 412C882 412 889 403 889 389C889 381 887 361 885 351L827 8C817 -52 798 -143 778 -233L770 -270L777 -276C798 -269 818 -264 850 -259L892 3C913 -4 935 -11 953 -11ZM920 165C942 293 1049 424 1132 424C1158 424 1170 402 1170 356C1170 275 1130 156 1077 80C1057 51 1025 36 984 36C953 36 928 43 902 59ZM1527 722L1515 733C1463 707 1427 698 1355 691L1351 670L1399 670C1423 670 1433 663 1433 648C1433 645 1433 640 1430 622C1419 567 1346 182 1331 132C1318 82 1312 52 1312 31C1312 6 1323 -9 1342 -9C1368 -9 1404 12 1502 85L1492 103L1466 86C1437 67 1415 56 1405 56C1398 56 1392 66 1392 76C1392 82 1393 89 1396 104ZM1570 152C1570 46 1615 -11 1698 -11C1753 -11 1813 15 1858 57C1920 116 1964 230 1964 331C1964 425 1914 482 1831 482C1727 482 1570 382 1570 152ZM1794 444C1855 444 1888 399 1888 315C1888 219 1857 113 1813 60C1795 39 1769 27 1738 27C1680 27 1646 72 1646 151C1646 264 1685 387 1734 427C1747 438 1770 444 1794 444ZM2267 204L2238 77C2234 60 2232 42 2232 26C2232 4 2241 -9 2256 -9C2279 -9 2320 17 2402 85L2395 106C2371 86 2342 59 2320 59C2311 59 2305 68 2305 82C2305 87 2305 90 2306 93L2398 472L2388 481L2355 463C2314 478 2297 482 2270 482C2242 482 2222 477 2195 464C2133 433 2100 403 2075 354C2031 265 2000 145 2000 67C2000 23 2015 -11 2034 -11C2071 -11 2151 41 2267 204ZM2315 414C2293 305 2274 253 2240 201C2183 117 2122 59 2090 59C2078 59 2072 72 2072 99C2072 163 2100 280 2135 360C2159 415 2182 433 2230 433C2253 433 2271 429 2315 414ZM2922 722L2910 733C2858 707 2822 698 2750 691L2746 670L2794 670C2818 670 2828 663 2828 646C2828 638 2827 629 2826 622L2798 468C2768 477 2741 482 2716 482C2647 482 2553 410 2507 323C2476 265 2456 170 2456 86C2456 21 2471 -11 2500 -11C2527 -11 2564 6 2598 33C2652 77 2685 116 2752 217L2729 126C2718 82 2713 50 2713 24C2713 3 2722 -9 2739 -9C2756 -9 2780 3 2814 28L2895 88L2885 107L2841 76C2827 66 2811 59 2802 59C2794 59 2788 68 2788 82C2788 90 2789 99 2796 128ZM2553 59C2537 59 2528 73 2528 98C2528 224 2574 380 2623 418C2636 428 2655 433 2682 433C2726 433 2755 427 2788 410L2776 351C2739 171 2598 59 2553 59Z" stroke="rgb(0,0,0)" stroke-opacity="1" stroke-width="8" fill="rgb(0,0,0)" fill-opacity="1"></path></g></g></g></g><g><g><g><g transform="matrix(1,0,0,1,283.6875305175781,232.8500183105469)"><path transform="matrix(0.015300000000000001,0,0,-0.015300000000000001,0,0)" d="M271 204L242 77C238 60 236 42 236 26C236 4 245 -9 260 -9C283 -9 324 17 406 85L399 106C375 86 346 59 324 59C315 59 309 68 309 82C309 87 309 90 310 93L402 472L392 481L359 463C318 478 301 482 274 482C246 482 226 477 199 464C137 433 104 403 79 354C35 265 4 145 4 67C4 23 19 -11 38 -11C75 -11 155 41 271 204ZM319 414C297 305 278 253 244 201C187 117 126 59 94 59C82 59 76 72 76 99C76 163 104 280 139 360C163 415 186 433 234 433C257 433 275 429 319 414ZM619 -11C675 -11 790 62 833 125C874 186 908 296 908 371C908 438 885 482 849 482C807 482 754 456 702 409C661 374 641 348 605 289L629 408C632 425 634 440 634 452C634 471 626 482 612 482C591 482 553 461 479 408L451 388L458 368L490 389C518 407 529 412 538 412C548 412 555 403 555 389C555 381 553 361 551 351L493 8C483 -52 464 -143 444 -233L436 -270L443 -276C464 -269 484 -264 516 -259L558 3C579 -4 601 -11 619 -11ZM586 165C608 293 715 424 798 424C824 424 836 402 836 356C836 275 796 156 743 80C723 51 691 36 650 36C619 36 594 43 568 59ZM1118 -11C1174 -11 1289 62 1332 125C1373 186 1407 296 1407 371C1407 438 1384 482 1348 482C1306 482 1253 456 1201 409C1160 374 1140 348 1104 289L1128 408C1131 425 1133 440 1133 452C1133 471 1125 482 1111 482C1090 482 1052 461 978 408L950 388L957 368L989 389C1017 407 1028 412 1037 412C1047 412 1054 403 1054 389C1054 381 1052 361 1050 351L992 8C982 -52 963 -143 943 -233L935 -270L942 -276C963 -269 983 -264 1015 -259L1057 3C1078 -4 1100 -11 1118 -11ZM1085 165C1107 293 1214 424 1297 424C1323 424 1335 402 1335 356C1335 275 1295 156 1242 80C1222 51 1190 36 1149 36C1118 36 1093 43 1067 59Z" stroke="rgb(0,0,0)" stroke-opacity="1" stroke-width="8" fill="rgb(0,0,0)" fill-opacity="1"></path></g></g><g><g transform="matrix(1,0,0,1,305.7375183105469,232.8500183105469)"><path transform="matrix(0.015300000000000001,0,0,-0.015300000000000001,0,0)" d="M124 111C94 111 67 83 67 53C67 23 94 -5 123 -5C155 -5 183 22 183 53C183 83 155 111 124 111Z" stroke="rgb(0,0,0)" stroke-opacity="1" stroke-width="8" fill="rgb(0,0,0)" fill-opacity="1"></path></g></g><g><g transform="matrix(1,0,0,1,312.6000061035156,232.8500183105469)"><path transform="matrix(0.015300000000000001,0,0,-0.015300000000000001,0,0)" d="M176 -11C232 -11 347 62 390 125C431 186 465 296 465 371C465 438 442 482 406 482C364 482 311 456 259 409C218 374 198 348 162 289L186 408C189 425 191 440 191 452C191 471 183 482 169 482C148 482 110 461 36 408L8 388L15 368L47 389C75 407 86 412 95 412C105 412 112 403 112 389C112 381 110 361 108 351L50 8C40 -52 21 -143 1 -233L-7 -270L0 -276C21 -269 41 -264 73 -259L115 3C136 -4 158 -11 176 -11ZM143 165C165 293 272 424 355 424C381 424 393 402 393 356C393 275 353 156 300 80C280 51 248 36 207 36C176 36 151 43 125 59ZM492 -180C491 -187 491 -193 491 -198C491 -241 528 -276 573 -276C679 -276 789 -152 848 33L989 473L978 482C949 471 926 465 904 463L869 331C857 284 822 211 789 162C754 111 705 67 683 67C671 67 662 90 663 115L679 322C681 353 683 391 683 419C683 464 676 482 659 482C646 482 632 475 584 442L502 386L513 368L563 398C568 401 579 410 588 410C602 410 610 391 610 358C610 357 610 351 609 343L592 100L591 60C591 18 609 -11 634 -11C671 -11 755 74 830 187L781 16C730 -161 680 -234 610 -234C575 -234 548 -207 548 -172C548 -167 549 -159 550 -150L540 -146Z" stroke="rgb(0,0,0)" stroke-opacity="1" stroke-width="8" fill="rgb(0,0,0)" fill-opacity="1"></path></g></g></g></g><g><g><g><g transform="matrix(1,0,0,1,382.4375305175781,215.57501220703125)"><path transform="matrix(0.0085,0,0,-0.0085,0,0)" d="M316 -3C388 -3 437 8 489 34C645 114 741 265 741 431C741 529 711 599 650 642C604 675 519 693 424 692L220 689L210 689C201 689 198 689 97 692L94 664L147 662C171 661 182 653 182 635C182 621 178 589 173 559L86 55C81 31 56 29 33 23L28 -3L121 0L176 0C211 0 282 -3 316 -3ZM384 655C566 655 649 579 649 415C649 225 549 41 329 41C285 41 236 46 168 56C168 68 169 75 172 93L268 650C291 650 349 655 384 655ZM1145 365C1148 403 1153 435 1161 476C1150 481 1146 482 1141 482C1110 482 1079 458 1043 407C1004 351 965 291 949 256L981 408C985 425 987 438 987 450C987 470 979 482 964 482C943 482 905 461 831 408L803 388L810 368L842 389C870 407 881 412 890 412C900 412 907 403 907 390C907 332 864 126 824 -2L834 -9C849 -4 865 -1 888 4L901 6L927 126C945 209 968 262 1012 319C1046 363 1073 384 1095 384C1110 384 1120 379 1131 365ZM1199 388L1206 368L1238 389C1275 412 1278 414 1285 414C1295 414 1303 404 1303 391C1303 384 1299 361 1295 347L1229 107C1221 76 1216 49 1216 30C1216 6 1227 -9 1246 -9C1272 -9 1308 12 1406 85L1396 103L1370 86C1341 67 1318 56 1309 56C1302 56 1296 66 1296 76C1296 86 1298 95 1303 116L1380 420C1384 437 1386 448 1386 456C1386 473 1377 482 1361 482C1339 482 1302 461 1227 408ZM1393 712C1364 712 1335 679 1335 645C1335 620 1350 604 1374 604C1405 604 1429 633 1429 671C1429 695 1414 712 1393 712ZM1787 437L1771 437L1792 549C1808 635 1836 673 1882 673C1912 673 1939 658 1954 634L1964 638C1969 654 1979 685 1987 705L1992 720C1976 727 1945 733 1922 733C1911 733 1895 730 1887 726C1863 715 1781 654 1758 630C1736 608 1724 578 1713 521L1698 442C1657 422 1637 414 1612 405L1607 383L1688 383L1679 327C1649 132 1612 -54 1590 -123C1572 -182 1542 -213 1506 -213C1483 -213 1472 -206 1454 -184L1440 -188C1436 -211 1422 -259 1417 -268C1426 -273 1441 -276 1452 -276C1493 -276 1547 -245 1586 -198C1657 -114 1677 -18 1761 383L1865 383C1869 402 1876 425 1882 439L1878 446C1849 439 1850 437 1787 437ZM2117 390L2061 107C2060 99 2048 61 2048 31C2048 6 2059 -9 2078 -9C2113 -9 2148 11 2226 74L2257 99L2247 117L2202 86C2173 66 2153 56 2142 56C2133 56 2128 64 2128 76C2128 102 2142 183 2171 328L2184 390L2291 390L2302 440C2264 436 2230 434 2192 434C2208 528 2219 577 2237 631L2226 646C2206 634 2179 622 2148 610L2123 440C2079 419 2053 408 2035 403L2033 390Z" stroke="rgb(0,0,0)" stroke-opacity="1" stroke-width="8" fill="rgb(0,0,0)" fill-opacity="1"></path></g></g></g></g><g><g><g><g transform="matrix(1,0,0,1,373.0500183105469,248.67501831054688)"><path transform="matrix(0.0085,0,0,-0.0085,0,0)" d="M345 437L329 437L350 549C366 635 394 673 440 673C470 673 497 658 512 634L522 638C527 654 537 685 545 705L550 720C534 727 503 733 480 733C469 733 453 730 445 726C421 715 339 654 316 630C294 608 282 578 271 521L256 442C215 422 195 414 170 405L165 383L246 383L237 327C207 132 170 -54 148 -123C130 -182 100 -213 64 -213C41 -213 30 -206 12 -184L-2 -188C-6 -211 -20 -259 -25 -268C-16 -273 -1 -276 10 -276C51 -276 105 -245 144 -198C215 -114 235 -18 319 383L423 383C427 402 434 425 440 439L436 446C407 439 408 437 345 437ZM878 111L854 94C801 56 753 36 717 36C670 36 641 73 641 133C641 158 644 185 649 214C666 218 775 248 800 259C885 296 924 342 924 404C924 451 890 482 840 482C772 496 662 423 625 349C595 299 565 180 565 113C565 35 609 -11 681 -11C738 -11 794 17 886 92ZM663 274C680 343 700 386 729 412C747 428 778 440 802 440C831 440 850 420 850 388C850 344 815 297 763 272C735 258 699 247 654 237ZM1209 204L1180 77C1176 60 1174 42 1174 26C1174 4 1183 -9 1198 -9C1221 -9 1262 17 1344 85L1337 106C1313 86 1284 59 1262 59C1253 59 1247 68 1247 82C1247 87 1247 90 1248 93L1340 472L1330 481L1297 463C1256 478 1239 482 1212 482C1184 482 1164 477 1137 464C1075 433 1042 403 1017 354C973 265 942 145 942 67C942 23 957 -11 976 -11C1013 -11 1093 41 1209 204ZM1257 414C1235 305 1216 253 1182 201C1125 117 1064 59 1032 59C1020 59 1014 72 1014 99C1014 163 1042 280 1077 360C1101 415 1124 433 1172 433C1195 433 1213 429 1257 414ZM1506 390L1450 107C1449 99 1437 61 1437 31C1437 6 1448 -9 1467 -9C1502 -9 1537 11 1615 74L1646 99L1636 117L1591 86C1562 66 1542 56 1531 56C1522 56 1517 64 1517 76C1517 102 1531 183 1560 328L1573 390L1680 390L1691 440C1653 436 1619 434 1581 434C1597 528 1608 577 1626 631L1615 646C1595 634 1568 622 1537 610L1512 440C1468 419 1442 408 1424 403L1422 390ZM2205 473L2198 482L2130 465L2120 414C2105 336 2080 268 2049 221C1990 130 1912 59 1872 59C1864 59 1859 68 1859 85C1859 99 1861 112 1866 137L1923 408C1926 424 1928 438 1928 451C1928 470 1919 482 1905 482C1885 482 1847 461 1773 408L1745 388L1752 368L1784 389C1812 407 1823 412 1832 412C1841 412 1849 403 1849 392C1849 388 1848 378 1847 374L1784 77C1782 68 1780 44 1780 30C1780 7 1795 -11 1815 -11C1878 -11 1999 101 2083 239L2046 97C2039 73 2035 46 2035 31C2035 6 2046 -9 2065 -9C2091 -9 2127 12 2225 85L2215 103L2189 86C2165 70 2139 59 2128 59C2120 59 2115 66 2115 76C2115 112 2190 416 2205 473ZM2636 365C2639 403 2644 435 2652 476C2641 481 2637 482 2632 482C2601 482 2570 458 2534 407C2495 351 2456 291 2440 256L2472 408C2476 425 2478 438 2478 450C2478 470 2470 482 2455 482C2434 482 2396 461 2322 408L2294 388L2301 368L2333 389C2361 407 2372 412 2381 412C2391 412 2398 403 2398 390C2398 332 2355 126 2315 -2L2325 -9C2340 -4 2356 -1 2379 4L2392 6L2418 126C2436 209 2459 262 2503 319C2537 363 2564 384 2586 384C2601 384 2611 379 2622 365ZM2984 111L2960 94C2907 56 2859 36 2823 36C2776 36 2747 73 2747 133C2747 158 2750 185 2755 214C2772 218 2881 248 2906 259C2991 296 3030 342 3030 404C3030 451 2996 482 2946 482C2878 496 2768 423 2731 349C2701 299 2671 180 2671 113C2671 35 2715 -11 2787 -11C2844 -11 2900 17 2992 92ZM2769 274C2786 343 2806 386 2835 412C2853 428 2884 440 2908 440C2937 440 2956 420 2956 388C2956 344 2921 297 2869 272C2841 258 2805 247 2760 237Z" stroke="rgb(0,0,0)" stroke-opacity="1" stroke-width="8" fill="rgb(0,0,0)" fill-opacity="1"></path></g></g></g><g><g><g transform="matrix(1,0,0,1,373.0500183105469,258.875)"><path transform="matrix(0.0085,0,0,-0.0085,0,0)" d="M34 388L41 368L73 389C110 412 113 414 120 414C130 414 138 404 138 391C138 384 134 361 130 347L64 107C56 76 51 49 51 30C51 6 62 -9 81 -9C107 -9 143 12 241 85L231 103L205 86C176 67 153 56 144 56C137 56 131 66 131 76C131 86 133 95 138 116L215 420C219 437 221 448 221 456C221 473 212 482 196 482C174 482 137 461 62 408ZM228 712C199 712 170 679 170 645C170 620 185 604 209 604C240 604 264 633 264 671C264 695 249 712 228 712ZM1007 103L981 86C952 67 930 56 920 56C913 56 907 65 907 76C907 86 909 95 914 116L989 413C993 430 996 446 996 454C996 471 986 482 970 482C941 482 903 464 842 421C779 376 744 341 695 272L725 409C729 429 732 444 732 451C732 470 722 482 706 482C676 482 630 460 575 418C531 384 511 363 446 275L479 408C483 424 485 439 485 451C485 470 476 482 462 482C441 482 403 461 329 408L301 388L308 368C345 391 380 414 387 414C398 414 405 404 405 389C405 338 364 145 323 2L326 -9L394 6L416 108C440 219 467 278 522 338C564 384 609 414 637 414C644 414 648 406 648 393C648 358 626 244 585 69L569 2L574 -9L643 6L664 113C680 194 714 269 758 318C813 379 863 414 895 414C903 414 908 405 908 389C908 365 905 351 883 264C843 105 827 84 827 31C827 6 838 -9 857 -9C883 -9 919 12 1017 85ZM1230 -11C1286 -11 1401 62 1444 125C1485 186 1519 296 1519 371C1519 438 1496 482 1460 482C1418 482 1365 456 1313 409C1272 374 1252 348 1216 289L1240 408C1243 425 1245 440 1245 452C1245 471 1237 482 1223 482C1202 482 1164 461 1090 408L1062 388L1069 368L1101 389C1129 407 1140 412 1149 412C1159 412 1166 403 1166 389C1166 381 1164 361 1162 351L1104 8C1094 -52 1075 -143 1055 -233L1047 -270L1054 -276C1075 -269 1095 -264 1127 -259L1169 3C1190 -4 1212 -11 1230 -11ZM1197 165C1219 293 1326 424 1409 424C1435 424 1447 402 1447 356C1447 275 1407 156 1354 80C1334 51 1302 36 1261 36C1230 36 1205 43 1179 59ZM1570 152C1570 46 1615 -11 1698 -11C1753 -11 1813 15 1858 57C1920 116 1964 230 1964 331C1964 425 1914 482 1831 482C1727 482 1570 382 1570 152ZM1794 444C1855 444 1888 399 1888 315C1888 219 1857 113 1813 60C1795 39 1769 27 1738 27C1680 27 1646 72 1646 151C1646 264 1685 387 1734 427C1747 438 1770 444 1794 444ZM2364 365C2367 403 2372 435 2380 476C2369 481 2365 482 2360 482C2329 482 2298 458 2262 407C2223 351 2184 291 2168 256L2200 408C2204 425 2206 438 2206 450C2206 470 2198 482 2183 482C2162 482 2124 461 2050 408L2022 388L2029 368L2061 389C2089 407 2100 412 2109 412C2119 412 2126 403 2126 390C2126 332 2083 126 2043 -2L2053 -9C2068 -4 2084 -1 2107 4L2120 6L2146 126C2164 209 2187 262 2231 319C2265 363 2292 384 2314 384C2329 384 2339 379 2350 365ZM2509 390L2453 107C2452 99 2440 61 2440 31C2440 6 2451 -9 2470 -9C2505 -9 2540 11 2618 74L2649 99L2639 117L2594 86C2565 66 2545 56 2534 56C2525 56 2520 64 2520 76C2520 102 2534 183 2563 328L2576 390L2683 390L2694 440C2656 436 2622 434 2584 434C2600 528 2611 577 2629 631L2618 646C2598 634 2571 622 2540 610L2515 440C2471 419 2445 408 2427 403L2425 390ZM2987 204L2958 77C2954 60 2952 42 2952 26C2952 4 2961 -9 2976 -9C2999 -9 3040 17 3122 85L3115 106C3091 86 3062 59 3040 59C3031 59 3025 68 3025 82C3025 87 3025 90 3026 93L3118 472L3108 481L3075 463C3034 478 3017 482 2990 482C2962 482 2942 477 2915 464C2853 433 2820 403 2795 354C2751 265 2720 145 2720 67C2720 23 2735 -11 2754 -11C2791 -11 2871 41 2987 204ZM3035 414C3013 305 2994 253 2960 201C2903 117 2842 59 2810 59C2798 59 2792 72 2792 99C2792 163 2820 280 2855 360C2879 415 2902 433 2950 433C2973 433 2991 429 3035 414ZM3183 388L3190 368L3222 389C3259 412 3262 414 3269 414C3280 414 3287 404 3287 389C3287 338 3246 145 3205 2L3212 -9C3237 -2 3260 4 3282 8C3301 134 3322 199 3368 268C3422 352 3497 414 3542 414C3553 414 3559 405 3559 390C3559 372 3556 351 3548 319L3496 107C3487 70 3483 47 3483 31C3483 6 3494 -9 3513 -9C3539 -9 3575 12 3673 85L3663 103L3637 86C3608 67 3586 56 3576 56C3569 56 3563 65 3563 76C3563 81 3564 92 3565 96L3631 372C3638 401 3642 429 3642 446C3642 469 3631 482 3611 482C3569 482 3500 444 3441 389C3403 354 3375 320 3323 247L3361 408C3365 426 3367 438 3367 449C3367 470 3359 482 3344 482C3323 482 3284 460 3211 408ZM4056 330L4079 330C4087 395 4094 432 4103 458C4079 473 4044 482 4007 482C3962 483 3889 463 3832 400C3778 352 3739 241 3739 136C3739 40 3781 -11 3861 -11C3915 -11 3963 9 4018 54L4068 95L4060 115L4045 105C3973 57 3935 40 3900 40C3844 40 3815 80 3815 159C3815 267 3850 371 3899 409C3920 425 3944 433 3975 433C4020 433 4056 414 4056 390ZM4448 111L4424 94C4371 56 4323 36 4287 36C4240 36 4211 73 4211 133C4211 158 4214 185 4219 214C4236 218 4345 248 4370 259C4455 296 4494 342 4494 404C4494 451 4460 482 4410 482C4342 496 4232 423 4195 349C4165 299 4135 180 4135 113C4135 35 4179 -11 4251 -11C4308 -11 4364 17 4456 92ZM4233 274C4250 343 4270 386 4299 412C4317 428 4348 440 4372 440C4401 440 4420 420 4420 388C4420 344 4385 297 4333 272C4305 258 4269 247 4224 237Z" stroke="rgb(0,0,0)" stroke-opacity="1" stroke-width="8" fill="rgb(0,0,0)" fill-opacity="1"></path></g></g></g></g><g><g><g><g transform="matrix(1,0,0,1,609.0500183105469,92.9875)"><path transform="matrix(0.015300000000000001,0,0,-0.015300000000000001,0,0)" d="M105 664L161 662C185 661 196 653 196 635C196 621 192 589 187 559L112 125C96 34 94 32 54 28L13 25L9 -3L51 -2C98 0 117 0 141 0L238 -3L264 -3L267 25L218 28C191 30 182 38 182 58C182 67 183 76 186 93L287 648C316 654 336 656 363 656C450 656 496 617 496 543C496 448 418 378 314 378L270 378L267 367C401 172 432 124 507 -3C507 -3 592 0 592 0C593 0 607 -1 626 -3L639 -3L639 24C599 29 588 37 559 79L375 354C430 364 459 376 495 402C553 444 584 499 584 560C584 646 520 693 409 691L108 691ZM994 111L970 94C917 56 869 36 833 36C786 36 757 73 757 133C757 158 760 185 765 214C782 218 891 248 916 259C1001 296 1040 342 1040 404C1040 451 1006 482 956 482C888 496 778 423 741 349C711 299 681 180 681 113C681 35 725 -11 797 -11C854 -11 910 17 1002 92ZM779 274C796 343 816 386 845 412C863 428 894 440 918 440C947 440 966 420 966 388C966 344 931 297 879 272C851 258 815 247 770 237ZM1085 148C1080 97 1074 62 1063 16C1101 -2 1135 -11 1170 -11C1219 -11 1265 7 1316 47C1367 87 1388 124 1388 174C1388 228 1356 257 1282 271L1239 279C1179 290 1160 307 1160 348C1160 401 1205 442 1262 442C1303 442 1341 424 1357 397L1357 342L1380 342C1384 377 1388 404 1399 455C1360 474 1332 482 1299 482C1247 482 1186 452 1138 404C1112 377 1101 352 1101 316C1101 260 1132 228 1198 215L1261 203C1305 195 1321 177 1321 138C1321 73 1275 29 1204 29C1169 29 1138 40 1110 64L1110 148ZM1934 473L1927 482L1859 465L1849 414C1834 336 1809 268 1778 221C1719 130 1641 59 1601 59C1593 59 1588 68 1588 85C1588 99 1590 112 1595 137L1652 408C1655 424 1657 438 1657 451C1657 470 1648 482 1634 482C1614 482 1576 461 1502 408L1474 388L1481 368L1513 389C1541 407 1552 412 1561 412C1570 412 1578 403 1578 392C1578 388 1577 378 1576 374L1513 77C1511 68 1509 44 1509 30C1509 7 1524 -11 1544 -11C1607 -11 1728 101 1812 239L1775 97C1768 73 1764 46 1764 31C1764 6 1775 -9 1794 -9C1820 -9 1856 12 1954 85L1944 103L1918 86C1894 70 1868 59 1857 59C1849 59 1844 66 1844 76C1844 112 1919 416 1934 473ZM2248 722L2236 733C2184 707 2148 698 2076 691L2072 670L2120 670C2144 670 2154 663 2154 648C2154 645 2154 640 2151 622C2140 567 2067 182 2052 132C2039 82 2033 52 2033 31C2033 6 2044 -9 2063 -9C2089 -9 2125 12 2223 85L2213 103L2187 86C2158 67 2136 56 2126 56C2119 56 2113 66 2113 76C2113 82 2114 89 2117 104ZM2399 390L2343 107C2342 99 2330 61 2330 31C2330 6 2341 -9 2360 -9C2395 -9 2430 11 2508 74L2539 99L2529 117L2484 86C2455 66 2435 56 2424 56C2415 56 2410 64 2410 76C2410 102 2424 183 2453 328L2466 390L2573 390L2584 440C2546 436 2512 434 2474 434C2490 528 2501 577 2519 631L2508 646C2488 634 2461 622 2430 610L2405 440C2361 419 2335 408 2317 403L2315 390ZM2637 148C2632 97 2626 62 2615 16C2653 -2 2687 -11 2722 -11C2771 -11 2817 7 2868 47C2919 87 2940 124 2940 174C2940 228 2908 257 2834 271L2791 279C2731 290 2712 307 2712 348C2712 401 2757 442 2814 442C2855 442 2893 424 2909 397L2909 342L2932 342C2936 377 2940 404 2951 455C2912 474 2884 482 2851 482C2799 482 2738 452 2690 404C2664 377 2653 352 2653 316C2653 260 2684 228 2750 215L2813 203C2857 195 2873 177 2873 138C2873 73 2827 29 2756 29C2721 29 2690 40 2662 64L2662 148Z" stroke="rgb(0,0,0)" stroke-opacity="1" stroke-width="8" fill="rgb(0,0,0)" fill-opacity="1"></path></g></g></g></g><g><g><g><g transform="matrix(1,0,0,1,152.02499389648438,135.48749389648438)"><path transform="matrix(0.0119,0,0,-0.0119,0,0)" d="M45 284C45 90 152 -18 343 -18C439 -18 510 5 600 67C600 67 610 103 610 103C610 103 600 110 600 110C506 53 454 35 376 35C219 35 133 131 133 309C133 447 190 653 418 653C489 653 541 639 597 603L597 519L624 519C629 576 637 619 651 665C575 694 518 706 456 706C276 706 45 578 45 284ZM704 152C704 46 749 -11 832 -11C887 -11 947 15 992 57C1054 116 1098 230 1098 331C1098 425 1048 482 965 482C861 482 704 382 704 152ZM928 444C989 444 1022 399 1022 315C1022 219 991 113 947 60C929 39 903 27 872 27C814 27 780 72 780 151C780 264 819 387 868 427C881 438 904 444 928 444ZM1154 388L1161 368L1193 389C1230 412 1233 414 1240 414C1251 414 1258 404 1258 389C1258 338 1217 145 1176 2L1183 -9C1208 -2 1231 4 1253 8C1272 134 1293 199 1339 268C1393 352 1468 414 1513 414C1524 414 1530 405 1530 390C1530 372 1527 351 1519 319L1467 107C1458 70 1454 47 1454 31C1454 6 1465 -9 1484 -9C1510 -9 1546 12 1644 85L1634 103L1608 86C1579 67 1557 56 1547 56C1540 56 1534 65 1534 76C1534 81 1535 92 1536 96L1602 372C1609 401 1613 429 1613 446C1613 469 1602 482 1582 482C1540 482 1471 444 1412 389C1374 354 1346 320 1294 247L1332 408C1336 426 1338 438 1338 449C1338 470 1330 482 1315 482C1294 482 1255 460 1182 408ZM2030 437L2014 437L2035 549C2051 635 2079 673 2125 673C2155 673 2182 658 2197 634L2207 638C2212 654 2222 685 2230 705L2235 720C2219 727 2188 733 2165 733C2154 733 2138 730 2130 726C2106 715 2024 654 2001 630C1979 608 1967 578 1956 521L1941 442C1900 422 1880 414 1855 405L1850 383L1931 383L1922 327C1892 132 1855 -54 1833 -123C1815 -182 1785 -213 1749 -213C1726 -213 1715 -206 1697 -184L1683 -188C1679 -211 1665 -259 1660 -268C1669 -273 1684 -276 1695 -276C1736 -276 1790 -245 1829 -198C1900 -114 1920 -18 2004 383L2108 383C2112 402 2119 425 2125 439L2121 446C2092 439 2093 437 2030 437ZM2269 388L2276 368L2308 389C2345 412 2348 414 2355 414C2365 414 2373 404 2373 391C2373 384 2369 361 2365 347L2299 107C2291 76 2286 49 2286 30C2286 6 2297 -9 2316 -9C2342 -9 2378 12 2476 85L2466 103L2440 86C2411 67 2388 56 2379 56C2372 56 2366 66 2366 76C2366 86 2368 95 2373 116L2450 420C2454 437 2456 448 2456 456C2456 473 2447 482 2431 482C2409 482 2372 461 2297 408ZM2463 712C2434 712 2405 679 2405 645C2405 620 2420 604 2444 604C2475 604 2499 633 2499 671C2499 695 2484 712 2463 712ZM2787 482C2720 482 2567 419 2567 259C2567 182 2612 136 2689 136C2697 136 2708 136 2719 137L2678 99C2662 84 2651 66 2651 52C2651 42 2658 31 2672 19C2603 -4 2475 -48 2475 -159C2475 -230 2545 -276 2654 -276C2783 -276 2896 -204 2896 -121C2896 -85 2875 -49 2832 -14L2772 35C2738 62 2725 81 2725 100C2725 114 2740 128 2752 146C2850 170 2921 253 2921 342C2921 357 2918 376 2917 380C2934 378 2942 378 2951 378C2968 378 2978 379 3001 382L3010 427L3007 433C2979 426 2959 424 2905 424C2905 425 2881 482 2787 482ZM2688 1L2765 -58C2811 -94 2830 -121 2830 -154C2830 -206 2761 -248 2678 -248C2596 -248 2539 -206 2539 -145C2539 -43 2649 -11 2688 1ZM2762 448C2820 448 2849 412 2849 341C2849 238 2801 168 2731 168C2670 168 2638 209 2638 288C2638 383 2689 448 2762 448Z" stroke="rgb(0,0,0)" stroke-opacity="1" stroke-width="8" fill="rgb(0,0,0)" fill-opacity="1"></path></g></g></g></g><g><g><g><g transform="matrix(1,0,0,1,97.46249389648438,27.100003051757813)"><path transform="matrix(0.015300000000000001,0,0,-0.015300000000000001,0,0)" d="M108 471C108 386 146 339 230 319L325 296C379 283 406 248 406 191C406 96 335 30 232 30C178 30 140 42 96 73L96 172L66 172C60 117 53 72 42 20C91 -5 144 -18 197 -18C352 -18 485 99 485 234C485 313 442 355 341 377L276 391C210 405 180 442 180 508C180 595 247 658 339 658C388 658 421 645 451 613L451 537L481 537C485 591 492 629 506 672C461 696 421 706 374 706C250 706 108 614 108 471ZM1017 224C1017 345 910 366 863 374C943 436 973 482 973 541C973 630 899 689 788 689C720 689 675 670 627 622L598 498L629 498L647 554C658 588 721 622 773 622C838 622 891 569 891 506C891 431 832 368 761 368C753 368 742 369 729 370L714 371L702 318L709 312C747 329 766 334 793 334C876 334 924 281 924 190C924 88 863 21 770 21C724 21 683 36 653 64C629 86 616 109 597 163L570 153C591 92 599 56 605 6C658 -12 702 -20 739 -20C862 -20 1017 87 1017 224Z" stroke="rgb(0,0,0)" stroke-opacity="1" stroke-width="8" fill="rgb(0,0,0)" fill-opacity="1"></path></g></g></g></g><g><g><g><g transform="matrix(1,0,0,1,519.6000061035156,181.1000183105469)"><path transform="matrix(0.015300000000000001,0,0,-0.015300000000000001,0,0)" d="M108 471C108 386 146 339 230 319L325 296C379 283 406 248 406 191C406 96 335 30 232 30C178 30 140 42 96 73L96 172L66 172C60 117 53 72 42 20C91 -5 144 -18 197 -18C352 -18 485 99 485 234C485 313 442 355 341 377L276 391C210 405 180 442 180 508C180 595 247 658 339 658C388 658 421 645 451 613L451 537L481 537C485 591 492 629 506 672C461 696 421 706 374 706C250 706 108 614 108 471ZM1137 103L792 692L630 692L625 664L660 662C705 660 739 615 740 606L647 102C635 40 629 32 593 28L562 25L557 -3L668 0C680 0 681 0 778 -3L783 25L741 28C701 31 692 39 692 72C692 80 693 91 695 102L775 566L1113 -11L1163 -11L1257 542C1278 655 1280 659 1317 662L1354 664L1357 691L1144 692L1139 664L1186 662C1212 661 1222 654 1222 638C1222 631 1139 116 1137 103ZM1440 471C1440 386 1478 339 1562 319L1657 296C1711 283 1738 248 1738 191C1738 96 1667 30 1564 30C1510 30 1472 42 1428 73L1428 172L1398 172C1392 117 1385 72 1374 20C1423 -5 1476 -18 1529 -18C1684 -18 1817 99 1817 234C1817 313 1774 355 1673 377L1608 391C1542 405 1512 442 1512 508C1512 595 1579 658 1671 658C1720 658 1753 645 1783 613L1783 537L1813 537C1817 591 1824 629 1838 672C1793 696 1753 706 1706 706C1582 706 1440 614 1440 471Z" stroke="rgb(0,0,0)" stroke-opacity="1" stroke-width="8" fill="rgb(0,0,0)" fill-opacity="1"></path></g></g></g></g><g><g><g><g transform="matrix(1,0,0,1,260.9250183105469,182.425)"><path transform="matrix(0.015300000000000001,0,0,-0.015300000000000001,0,0)" d="M349 664L352 692L238 689C222 689 204 689 161 690L97 692L94 664L141 662C165 661 176 653 176 635L81 55C77 37 65 30 21 23L16 -3L57 -2C88 -1 150 0 170 0C170 0 467 -1 467 -1C467 -1 500 0 500 0C499 25 510 103 523 165L492 165L475 103C466 71 457 54 448 49C435 44 371 39 304 39C255 39 228 40 162 46C165 64 256 605 256 613C263 651 270 658 307 661ZM826 204L797 77C793 60 791 42 791 26C791 4 800 -9 815 -9C838 -9 879 17 961 85L954 106C930 86 901 59 879 59C870 59 864 68 864 82C864 87 864 90 865 93L957 472L947 481L914 463C873 478 856 482 829 482C801 482 781 477 754 464C692 433 659 403 634 354C590 265 559 145 559 67C559 23 574 -11 593 -11C630 -11 710 41 826 204ZM874 414C852 305 833 253 799 201C742 117 681 59 649 59C637 59 631 72 631 99C631 163 659 280 694 360C718 415 741 433 789 433C812 433 830 429 874 414ZM1728 103L1702 86C1673 67 1651 56 1641 56C1634 56 1628 65 1628 76C1628 86 1630 95 1635 116L1710 413C1714 430 1717 446 1717 454C1717 471 1707 482 1691 482C1662 482 1624 464 1563 421C1500 376 1465 341 1416 272L1446 409C1450 429 1453 444 1453 451C1453 470 1443 482 1427 482C1397 482 1351 460 1296 418C1252 384 1232 363 1167 275L1200 408C1204 424 1206 439 1206 451C1206 470 1197 482 1183 482C1162 482 1124 461 1050 408L1022 388L1029 368C1066 391 1101 414 1108 414C1119 414 1126 404 1126 389C1126 338 1085 145 1044 2L1047 -9L1115 6L1137 108C1161 219 1188 278 1243 338C1285 384 1330 414 1358 414C1365 414 1369 406 1369 393C1369 358 1347 244 1306 69L1290 2L1295 -9L1364 6L1385 113C1401 194 1435 269 1479 318C1534 379 1584 414 1616 414C1624 414 1629 405 1629 389C1629 365 1626 351 1604 264C1564 105 1548 84 1548 31C1548 6 1559 -9 1578 -9C1604 -9 1640 12 1738 85ZM2010 722L1998 733C1946 707 1910 698 1838 691L1834 670L1882 670C1906 670 1916 663 1916 646C1916 639 1915 628 1914 622L1813 71C1812 68 1812 64 1812 61C1812 22 1860 -11 1915 -11C1952 -11 2003 8 2046 39C2142 107 2208 244 2208 376C2208 414 2199 453 2187 468C2180 477 2167 482 2152 482C2128 482 2098 474 2070 460C2019 433 1986 403 1924 324ZM2097 424C2123 424 2136 401 2136 352C2136 288 2115 202 2085 137C2052 68 2012 36 1958 36C1912 36 1887 59 1887 101C1887 135 1902 276 1983 361C2016 395 2068 424 2097 424ZM2720 722L2708 733C2656 707 2620 698 2548 691L2544 670L2592 670C2616 670 2626 663 2626 646C2626 638 2625 629 2624 622L2596 468C2566 477 2539 482 2514 482C2445 482 2351 410 2305 323C2274 265 2254 170 2254 86C2254 21 2269 -11 2298 -11C2325 -11 2362 6 2396 33C2450 77 2483 116 2550 217L2527 126C2516 82 2511 50 2511 24C2511 3 2520 -9 2537 -9C2554 -9 2578 3 2612 28L2693 88L2683 107L2639 76C2625 66 2609 59 2600 59C2592 59 2586 68 2586 82C2586 90 2587 99 2594 128ZM2351 59C2335 59 2326 73 2326 98C2326 224 2372 380 2421 418C2434 428 2453 433 2480 433C2524 433 2553 427 2586 410L2574 351C2537 171 2396 59 2351 59ZM3007 204L2978 77C2974 60 2972 42 2972 26C2972 4 2981 -9 2996 -9C3019 -9 3060 17 3142 85L3135 106C3111 86 3082 59 3060 59C3051 59 3045 68 3045 82C3045 87 3045 90 3046 93L3138 472L3128 481L3095 463C3054 478 3037 482 3010 482C2982 482 2962 477 2935 464C2873 433 2840 403 2815 354C2771 265 2740 145 2740 67C2740 23 2755 -11 2774 -11C2811 -11 2891 41 3007 204ZM3055 414C3033 305 3014 253 2980 201C2923 117 2862 59 2830 59C2818 59 2812 72 2812 99C2812 163 2840 280 2875 360C2899 415 2922 433 2970 433C2993 433 3011 429 3055 414Z" stroke="rgb(0,0,0)" stroke-opacity="1" stroke-width="8" fill="rgb(0,0,0)" fill-opacity="1"></path></g></g></g></g><g><g><g><g transform="matrix(1,0,0,1,446.4375305175781,87.57499694824219)"><path transform="matrix(0.0085,0,0,-0.0085,0,0)" d="M124 111C94 111 67 83 67 53C67 23 94 -5 123 -5C155 -5 183 22 183 53C183 83 155 111 124 111Z" stroke="rgb(0,0,0)" stroke-opacity="1" stroke-width="8" fill="rgb(0,0,0)" fill-opacity="1"></path></g></g><g><g transform="matrix(1,0,0,1,450.2624816894531,87.57499694824219)"><path transform="matrix(0.0085,0,0,-0.0085,0,0)" d="M342 330L365 330C373 395 380 432 389 458C365 473 330 482 293 482C248 483 175 463 118 400C64 352 25 241 25 136C25 40 67 -11 147 -11C201 -11 249 9 304 54L354 95L346 115L331 105C259 57 221 40 186 40C130 40 101 80 101 159C101 267 136 371 185 409C206 425 230 433 261 433C306 433 342 414 342 390ZM437 148C432 97 426 62 415 16C453 -2 487 -11 522 -11C571 -11 617 7 668 47C719 87 740 124 740 174C740 228 708 257 634 271L591 279C531 290 512 307 512 348C512 401 557 442 614 442C655 442 693 424 709 397L709 342L732 342C736 377 740 404 751 455C712 474 684 482 651 482C599 482 538 452 490 404C464 377 453 352 453 316C453 260 484 228 550 215L613 203C657 195 673 177 673 138C673 73 627 29 556 29C521 29 490 40 462 64L462 148ZM960 420C981 420 997 421 1023 424C912 304 870 221 870 121C870 44 916 -11 980 -11C1118 -11 1271 236 1271 384C1271 441 1245 482 1209 482C1196 482 1184 478 1176 470L1126 423L1137 404C1146 410 1155 413 1164 413C1191 413 1207 390 1207 350C1207 202 1110 39 1022 39C973 39 942 81 942 146C942 251 981 342 1079 464L1069 482C1049 473 1036 470 1008 470C980 470 938 472 909 475L897 476C891 477 886 477 885 477C873 477 864 475 853 470C839 443 828 407 815 352L837 352L854 394C861 411 881 422 905 422C938 422 922 420 960 420Z" stroke="rgb(0,0,0)" stroke-opacity="1" stroke-width="8" fill="rgb(0,0,0)" fill-opacity="1"></path></g></g></g></g></svg>
</svg>
